HIERARCHY
ROOT Hips
{
	OFFSET 0.000000 0.000000 0.000000 
	CHANNELS 6 Xposition Yposition Zposition Yrotation Zrotation Xrotation 
	JOINT Lumbar
	{
		OFFSET 0.000000 0.000000 0.000000 
		CHANNELS 3 Zrotation Xrotation Yrotation
		JOINT Neck
		{
			OFFSET 0.000000 0.445665 0.000000 
			CHANNELS 3 Zrotation Xrotation Yrotation
			End Site
			{
				OFFSET 0.000000 0.227535 0.000000 
			}
		}
		JOINT RightShoulder
		{
			OFFSET 0.019635 0.377685 0.194865 
			CHANNELS 3 Zrotation Xrotation Yrotation
			JOINT RightElbow
			{
				OFFSET 0.000000 -0.243375 0.000000 
				CHANNELS 2 Zrotation Yrotation
				JOINT RightWrist
				{
					OFFSET 0.000000 -0.264825 0.000000 
					CHANNELS 2 Zrotation Xrotation
					End Site
					{
						OFFSET 0.006600 -0.176220 0.000990 
					}
				}
			}
		}
		JOINT LeftShoulder
		{
			OFFSET 0.019635 0.377685 -0.194865 
			CHANNELS 3 Zrotation Xrotation Yrotation
			JOINT LeftElbow
			{
				OFFSET 0.000000 -0.243375 0.000000 
				CHANNELS 2 Zrotation Yrotation
				JOINT LeftWrist
				{
					OFFSET 0.000000 -0.264825 0.000000 
					CHANNELS 2 Zrotation Xrotation
					End Site
					{
						OFFSET 0.006600 -0.176220 -0.000990 
					}
				}
			}
		}
	}
	JOINT RightHip
	{
		OFFSET 0.052140 -0.069960 0.075570 
		CHANNELS 3 Zrotation Xrotation Yrotation
		JOINT RightKnee
		{
			OFFSET 0.000000 -0.402270 0.000000 
			CHANNELS 1 Zrotation
			JOINT RightAnkle
			{
				OFFSET 0.000000 -0.404085 0.000000 
				CHANNELS 3 Zrotation Xrotation Yrotation
				End Site
				{
					OFFSET 0.204105 -0.089430 0.008415 
				}
			}
		}
	}
	JOINT LeftHip
	{
		OFFSET 0.052140 -0.069960 -0.075570 
		CHANNELS 3 Zrotation Xrotation Yrotation
		JOINT LeftKnee
		{
			OFFSET 0.000000 -0.402270 0.000000 
			CHANNELS 1 Zrotation
			JOINT LeftAnkle
			{
				OFFSET 0.000000 -0.404085 0.000000 
				CHANNELS 3 Zrotation Xrotation Yrotation
				End Site
				{
					OFFSET 0.204105 -0.089430 -0.008415 
				}
			}
		}
	}
}
MOTION
Frames: 33
Frame Time: 0.02
-0.00013 -0 7e-05 -178.95147 -33.41508 -3.23231 42.46157 2.08875 -4.74476 -13.5896 -0.94356 -1.28569 75.01226 -100.3504 55.63339 5.78734 101.85144 11.95003 2.48427 59.30399 100.15406 -55.63141 5.79103 -94.05376 9.43457 -0.49721 38.16803 -4.83688 -10.34038 -22.60391 -6.74513 -2.04931 -3.2401 42.75582 9.22599 3.14754 -27.79305 -6.60603 1.77992 3.09167
-0.00024 -0 9e-05 -178.95302 -33.43009 -3.23113 42.4712 2.08797 -4.76501 -13.58567 -0.94604 -1.28596 74.96135 -100.35962 55.63346 5.7873 101.8648 11.94937 2.46932 59.37609 100.14208 -55.63142 5.79097 -94.08118 9.43794 -0.50146 38.182 -4.81209 -10.20507 -22.60239 -6.74624 -2.06254 -3.24698 42.76562 9.22842 3.16513 -27.79354 -6.6074 1.76847 3.08706
-0.00034 0 0.00011 -178.95452 -33.44484 -3.22994 42.48061 2.08716 -4.78525 -13.58174 -0.9485 -1.28623 74.9103 -100.36884 55.63353 5.78726 101.87811 11.94872 2.45436 59.44769 100.13018 -55.63142 5.79091 -94.10848 9.44127 -0.50565 38.19562 -4.78738 -10.07025 -22.60081 -6.74734 -2.07573 -3.25384 42.77509 9.23094 3.18311 -27.794 -6.60876 1.757 3.08244
-0.00044 1e-05 0.00013 -178.95606 -33.45975 -3.22876 42.49016 2.08638 -4.80545 -13.57782 -0.95096 -1.28649 74.8595 -100.37804 55.6336 5.78722 101.89143 11.94806 2.43944 59.51952 100.11824 -55.63142 5.79085 -94.1358 9.44462 -0.50988 38.20948 -4.76266 -9.93536 -22.59928 -6.74844 -2.08892 -3.2607 42.7848 9.23339 3.20073 -27.79448 -6.61013 1.74557 3.07784
-0.00055 1e-05 0.00015 -178.95767 -33.47506 -3.2276 42.50008 2.08561 -4.82563 -13.57392 -0.95344 -1.28676 74.80898 -100.38722 55.63368 5.78718 101.90481 11.94738 2.42456 59.59197 100.10622 -55.63143 5.79079 -94.16324 9.44802 -0.51417 38.22386 -4.73787 -9.8 -22.59782 -6.74955 -2.10215 -3.26758 42.795 9.23568 3.21773 -27.79502 -6.61149 1.73418 3.07326
-0.00065 2e-05 0.00017 -178.95894 -33.48863 -3.22636 42.50843 2.08473 -4.84601 -13.56993 -0.95586 -1.28703 74.75683 -100.39654 55.63375 5.78714 101.91798 11.94679 2.40942 59.66176 100.09456 -55.63143 5.79074 -94.19024 9.45122 -0.51817 38.23591 -4.71336 -9.66635 -22.596 -6.75063 -2.11526 -3.27439 42.80298 9.23868 3.23773 -27.79531 -6.61287 1.72256 3.06855
-0.00075 2e-05 0.00019 -178.96085 -33.50556 -3.22527 42.5198 2.08409 -4.86598 -13.56611 -0.95841 -1.28729 74.70796 -100.40557 55.63382 5.78709 101.93155 11.94602 2.39481 59.73684 100.08218 -55.63143 5.79067 -94.21811 9.45482 -0.52276 38.25249 -4.68827 -9.52928 -22.59489 -6.75177 -2.1286 -3.28134 42.81526 9.2403 3.25186 -27.79607 -6.61421 1.71139 3.06409
-0.00086 2e-05 0.00021 -178.96225 -33.51963 -3.22406 42.52862 2.08324 -4.88628 -13.56214 -0.96083 -1.28756 74.65618 -100.41485 55.63389 5.78705 101.94476 11.94542 2.37973 59.80702 100.07046 -55.63144 5.79062 -94.24516 9.45805 -0.52679 38.26517 -4.66377 -9.39562 -22.59317 -6.75286 -2.1417 -3.28814 42.82385 9.24312 3.27107 -27.79643 -6.61559 1.69984 3.05943
-0.00097 3e-05 0.00023 -178.96273 -33.52922 -3.22261 42.53334 2.08208 -4.90719 -13.55796 -0.96309 -1.28784 74.6003 -100.42451 55.63396 5.78701 101.95749 11.94503 2.36399 59.87128 100.05956 -55.63144 5.79056 -94.27128 9.46082 -0.53016 38.2719 -4.63977 -9.26504 -22.59053 -6.75388 -2.15464 -3.29483 42.82679 9.24771 3.29787 -27.79617 -6.61702 1.68768 3.05444
-0.00105 3e-05 0.00025 -178.96762 -33.56163 -3.22228 42.5587 2.08251 -4.92522 -13.55492 -0.96626 -1.28806 74.56636 -100.43223 55.63404 5.78697 101.97287 11.94344 2.35179 59.9698 100.04398 -55.63144 5.79048 -94.30298 9.4662 -0.53741 38.3093 -4.61224 -9.11349 -22.59263 -6.75526 -2.1689 -3.30238 42.85882 9.24302 3.28515 -27.7991 -6.61817 1.6786 3.05108
-0.00119 3e-05 0.00027 -178.96376 -33.54782 -3.21974 42.54243 2.0797 -4.94891 -13.54949 -0.96755 -1.28841 74.48723 -100.44388 55.6341 5.78693 101.98275 11.94438 2.33231 59.99592 100.03824 -55.63144 5.79046 -94.32273 9.4661 -0.53644 38.28432 -4.59256 -9.00823 -22.58511 -6.75588 -2.18011 -3.30799 42.8317 9.25733 3.35311 -27.79555 -6.61987 1.6633 3.04443
-0.00145 2e-05 0.00027 -178.93083 -33.38975 -3.2098 42.3944 2.0669 -4.99182 -13.53748 -0.96342 -1.28911 74.27432 -100.46771 55.63412 5.78693 101.97666 11.95212 2.29103 59.82262 100.06006 -55.63143 5.79058 -94.31105 9.45051 -0.51313 38.06686 -4.59119 -9.01365 -22.54758 -6.7545 -2.18527 -3.30936 42.62166 9.32921 3.66754 -27.77168 -6.62352 1.62827 3.02729
-0.00176 0 0.00026 -178.88994 -33.18824 -3.19785 42.20754 2.05103 -5.03975 -13.52309 -0.95747 -1.28995 74.01817 -100.49522 55.63411 5.78693 101.96525 11.96241 2.24284 59.57697 100.09162 -55.63142 5.79076 -94.28721 9.42949 -0.48155 37.7904 -4.5982 -9.06797 -22.501 -6.75235 -2.18702 -3.30862 42.35572 9.41924 4.05871 -27.74171 -6.62764 1.58746 3.00709
-0.00205 -1e-05 0.00026 -178.85609 -33.01832 -3.18771 42.05018 2.03729 -5.08289 -13.50982 -0.95257 -1.29073 73.78782 -100.52018 55.63411 5.78693 101.95681 11.97164 2.19892 59.36466 100.11841 -55.63141 5.79092 -94.26791 9.41126 -0.45358 37.55525 -4.60363 -9.11131 -22.46097 -6.7505 -2.18873 -3.30809 42.1292 9.4973 4.39792 -27.71623 -6.63124 1.55109 2.98925
-0.00234 -3e-05 0.00025 -178.80814 -32.79937 -3.17389 41.84375 2.0205 -5.13646 -13.49634 -0.94678 -1.29151 73.53013 -100.54895 55.63411 5.78693 101.94591 11.98049 2.14997 59.14941 100.14681 -55.6314 5.79105 -94.25233 9.39169 -0.42614 37.26004 -4.60014 -9.10973 -22.41084 -6.74885 -2.19685 -3.31056 41.84468 9.59075 4.80787 -27.68365 -6.6361 1.50718 2.96739
-0.00264 -5e-05 0.00025 -178.78724 -32.6709 -3.16715 41.72898 2.00923 -5.16974 -13.48278 -0.94236 -1.29231 73.32076 -100.57054 55.63411 5.78693 101.93902 11.99068 2.11018 58.92421 100.17399 -55.63139 5.79126 -94.22664 9.37361 -0.39576 37.07437 -4.61662 -9.21024 -22.37934 -6.74661 -2.19118 -3.30647 41.66613 9.65688 5.0906 -27.66422 -6.63849 1.47743 2.95306
-0.00293 -7e-05 0.00025 -178.84681 -32.81467 -3.18133 41.88874 2.01476 -5.14367 -13.4692 -0.9426 -1.29313 73.24145 -100.5723 55.63411 5.78693 101.94314 12.0044 2.09435 58.68064 100.19676 -55.63137 5.7917 -94.17151 9.36123 -0.35843 37.2194 -4.69126 -9.6068 -22.40363 -6.74285 -2.14528 -3.28324 41.80773 9.63947 4.98632 -27.6843 -6.63365 1.4898 2.96131
-0.00323 -9e-05 0.00024 -178.93316 -33.04886 -3.20254 42.13989 2.0258 -5.0974 -13.45569 -0.9442 -1.29396 73.21476 -100.56657 55.63411 5.78693 101.95171 12.01925 2.08849 58.43152 100.21769 -55.63136 5.79222 -94.10744 9.35051 -0.31867 37.47419 -4.78477 -10.09957 -22.44658 -6.73855 -2.08618 -3.25377 42.0554 9.5946 4.75444 -27.71752 -6.62636 1.51631 2.97706
-0.00353 -0.00012 0.00024 -179.00478 -33.2339 -3.21996 42.34134 2.03377 -5.06174 -13.44236 -0.9449 -1.29478 73.1733 -100.56366 55.63411 5.78693 101.95914 12.03334 2.08008 58.19015 100.23862 -55.63134 5.7927 -94.05042 9.33885 -0.28051 37.66965 -4.86627 -10.53105 -22.47957 -6.73456 -2.03512 -3.2282 42.24538 9.56474 4.59217 -27.74361 -6.62038 1.5353 2.98872
-0.00383 -0.00014 0.00024 -179.08698 -33.4513 -3.23982 42.57579 2.04399 -5.0202 -13.42804 -0.94674 -1.29563 73.09224 -100.56321 55.63411 5.78693 101.96273 12.04873 2.06324 57.92277 100.26351 -55.63133 5.7932 -93.98045 9.32776 -0.23969 37.90278 -4.96248 -11.0381 -22.51845 -6.73026 -1.97538 -3.19809 42.47322 9.52492 4.38381 -27.77434 -6.6136 1.55872 3.00314
-0.00412 -0.00016 0.00024 -179.15354 -33.62352 -3.2563 42.76386 2.0509 -4.98605 -13.41586 -0.94657 -1.29642 73.10607 -100.55595 55.63411 5.78693 101.97535 12.06144 2.06617 57.71097 100.27946 -55.63132 5.79368 -93.93537 9.316 -0.20428 38.08449 -5.03252 -11.41032 -22.54963 -6.72648 -1.93057 -3.17596 42.6484 9.49897 4.2398 -27.79865 -6.6079 1.57634 3.01363
-0.00443 -0.00018 0.00025 -179.17112 -33.6471 -3.26177 42.80012 2.04711 -4.97726 -13.40924 -0.94033 -1.29706 73.37485 -100.53046 55.63411 5.78694 102.01261 12.06813 2.12337 57.63903 100.27215 -55.63131 5.79417 -93.96224 9.30143 -0.18153 38.09554 -5.02484 -11.38363 -22.5547 -6.72428 -1.93054 -3.17763 42.64991 9.51867 4.30624 -27.80163 -6.60576 1.57466 3.01135
-0.00473 -0.00019 0.00026 -179.17192 -33.62245 -3.2636 42.78684 2.03986 -4.97657 -13.40485 -0.93205 -1.29765 73.73632 -100.49856 55.63411 5.78694 102.05867 12.07177 2.19973 57.62641 100.25567 -55.63132 5.79465 -94.01431 9.28618 -0.16482 38.05146 -4.99031 -11.21838 -22.55142 -6.72262 -1.94593 -3.1875 42.59527 9.55287 4.44042 -27.79777 -6.60479 1.56673 3.00491
-0.00504 -0.00021 0.00027 -179.18001 -33.62148 -3.2671 42.79759 2.03438 -4.97218 -13.39963 -0.92487 -1.29825 74.05194 -100.47041 55.6341 5.78694 102.10024 12.07568 2.26604 57.59678 100.24273 -55.63131 5.79508 -94.05422 9.27171 -0.14737 38.03438 -4.96855 -11.1182 -22.55222 -6.72072 -1.95405 -3.19348 42.56838 9.5802 4.54313 -27.79732 -6.60332 1.56148 3.00038
-0.00534 -0.00023 0.00028 -179.19059 -33.61697 -3.27081 42.80584 2.02829 -4.96721 -13.39354 -0.9171 -1.29885 74.38563 -100.43853 55.6341 5.78695 102.1441 12.08429 2.33853 57.52479 100.23243 -55.63131 5.79567 -94.09684 9.25559 -0.12166 38.01379 -4.94495 -11.01209 -22.55263 -6.71879 -1.96282 -3.19997 42.53654 9.60859 4.64738 -27.79612 -6.60167 1.55708 2.99587
-0.00564 -0.00024 0.0003 -179.19149 -33.60627 -3.27308 42.80543 2.02252 -4.96559 -13.38991 -0.90997 -1.29952 74.70235 -100.41294 55.6341 5.78695 102.18513 12.08244 2.40235 57.55534 100.21439 -55.63131 5.79603 -94.13987 9.24236 -0.11424 37.98487 -4.9187 -10.88472 -22.55143 -6.71705 -1.97406 -3.2074 42.4993 9.63755 4.76232 -27.7946 -6.60064 1.54966 2.99042
-0.00592 -0.00027 0.00038 -179.17101 -33.59838 -3.27277 42.80131 2.01892 -4.97167 -13.39163 -0.90585 -1.29966 74.95598 -100.40652 55.6341 5.78695 102.21696 12.0518 2.43932 57.85517 100.17783 -55.63133 5.79522 -94.17791 9.24037 -0.15923 37.95628 -4.89047 -10.72722 -22.54936 -6.71565 -1.98856 -3.21553 42.46943 9.67367 4.92514 -27.79482 -6.60171 1.53164 2.9816
-0.00619 -0.0003 0.00048 -179.14112 -33.58435 -3.27104 42.78861 2.01568 -4.98074 -13.39595 -0.90228 -1.3 75.18841 -100.40653 55.6341 5.78694 102.24541 12.01073 2.46639 58.25723 100.13366 -55.63136 5.79459 -94.21515 9.24068 -0.22188 37.91932 -4.86064 -10.55354 -22.54566 -6.71443 -2.00505 -3.22432 42.43436 9.70854 5.09144 -27.79479 -6.60327 1.51133 2.97221
-0.00647 -0.00032 0.00057 -179.1144 -33.56688 -3.26955 42.7736 2.01193 -4.9884 -13.39961 -0.89802 -1.30077 75.42539 -100.4036 55.63411 5.78693 102.27494 11.97498 2.49694 58.61056 100.09264 -55.63137 5.79382 -94.2533 9.23794 -0.27411 37.87855 -4.83228 -10.39037 -22.54148 -6.71314 -2.02057 -3.23273 42.39499 9.73785 5.2327 -27.79413 -6.60419 1.4946 2.96425
-0.00675 -0.00035 0.00065 -179.09126 -33.57254 -3.26952 42.78155 2.00943 -4.99703 -13.40099 -0.89568 -1.29944 75.68493 -100.40099 55.63411 5.78693 102.30695 11.93715 2.53303 58.97067 100.05273 -55.6314 5.79199 -94.29163 9.24378 -0.33628 37.86603 -4.79989 -10.20941 -22.54179 -6.71179 -2.03688 -3.24174 42.38009 9.79257 5.47141 -27.79613 -6.60686 1.46733 2.95139
-0.00701 -0.00037 0.00076 -179.05929 -33.53115 -3.26631 42.74225 2.00455 -5.00367 -13.40788 -0.88935 -1.30242 75.89396 -100.39873 55.63411 5.78693 102.33258 11.90063 2.55429 59.34626 100.00867 -55.63142 5.79406 -94.32701 9.23213 -0.38232 37.79594 -4.77585 -10.06308 -22.53293 -6.71062 -2.05181 -3.24957 42.3159 9.79506 5.51194 -27.79292 -6.60605 1.46107 2.94844
-0.00724 -0.0004 0.00092 -178.99966 -33.34409 -3.25332 42.5574 1.99213 -5.00911 -13.42811 -0.87331 -1.31806 75.94915 -100.40033 55.63411 5.78692 102.34383 11.87565 2.54281 59.69152 99.9557 -55.63142 5.79225 -94.37292 9.17388 -0.37556 37.54684 -4.77548 -10.0202 -22.49527 -6.70991 -2.06247 -3.25397 42.09772 9.64317 4.9626 -27.77287 -6.59491 1.5175 2.975
-0.00745 -0.00042 0.00112 -178.93253 -33.1131 -3.23741 42.32849 1.97744 -5.01154 -13.45407 -0.85301 -1.33789 75.96039 -100.40076 55.63409 5.78695 102.3483 11.85156 2.51562 60.06046 99.89837 -55.63142 5.79681 -94.413 9.09799 -0.35259 37.24421 -4.78367 -10.01277 -22.44916 -6.70938 -2.0716 -3.25711 41.83369 9.44055 4.22098 -27.74805 -6.58036 1.59443 3.01122
